<svg id="Line" height="512" viewBox="0 0 64 64" width="512" xmlns="http://www.w3.org/2000/svg"><path d="m62 54h-3v-26a1 1 0 0 0 -1-1h-26v-3a1 1 0 0 0 -1-1h-3a1 1 0 0 0 -1 1v3h-3a1 1 0 0 0 -1 1v3a1 1 0 0 0 1 1h3v26a1 1 0 0 0 1 1h26v3a1 1 0 0 0 1 1h3a1 1 0 0 0 1-1v-3h3a1 1 0 0 0 1-1v-3a1 1 0 0 0 -1-1zm-30 0v-22h22v22z" fill="#c4a2fc"/><path d="m51 34h-16a1 1 0 0 0 -1 1v16a1 1 0 0 0 1 1h16a1 1 0 0 0 1-1v-16a1 1 0 0 0 -1-1zm-11 10h-3a1 1 0 0 1 0-2h3a1 1 0 0 1 0 2zm4 5a1 1 0 0 1 -2 0v-3a1 1 0 0 1 2 0zm0-9a1 1 0 0 1 -2 0v-3a1 1 0 0 1 2 0zm5 4h-3a1 1 0 0 1 0-2h3a1 1 0 0 1 0 2z" fill="#c4a2fc"/><g fill="#151a6a"><path d="m48 9h-31a8 8 0 0 0 -16 0v34c0 .00952.00519.01733.00543.02679a7.98628 7.98628 0 0 0 7.99457 7.97321h39a3.00328 3.00328 0 0 0 3-3v-36a3.00328 3.00328 0 0 0 -3-3zm-39-6a6.00657 6.00657 0 0 1 6 6v28.72021a7.88274 7.88274 0 0 0 -6.11377-2.71972 7.98967 7.98967 0 0 0 -5.88623 2.74933v-28.74982a6.00657 6.00657 0 0 1 6-6zm40 45a1.0013 1.0013 0 0 1 -1 1h-39a5.99681 5.99681 0 0 1 -5.99951-6.08545 6.11443 6.11443 0 0 1 5.91357-5.91406 5.99564 5.99564 0 0 1 6.08594 5.99951 1 1 0 0 0 2 0v-32h31a1.0013 1.0013 0 0 1 1 1z"/><path d="m45 14h-24a1 1 0 0 0 -1 1v12a1 1 0 0 0 2 0v-11h10v8h-2a1 1 0 0 0 0 2h6a1 1 0 0 0 0-2h-2v-3h5a1 1 0 0 0 0-2h-5v-3h10v5.72314l-2.85742 4.76221a1 1 0 0 0 1.71484 1.0293l3-5a1.00168 1.00168 0 0 0 .14258-.51465v-7a1 1 0 0 0 -1-1z"/><path d="m45 30h-12a1 1 0 0 0 0 2h11v12h-10v-8a1 1 0 0 0 -2 0v8h-10v-9.64941l3.78076-4.72608a.9998.9998 0 0 0 -1.56152-1.249l-4 5a.99807.99807 0 0 0 -.21924.62449v11a1 1 0 0 0 1 1h24a1 1 0 0 0 1-1v-14a1 1 0 0 0 -1-1z"/></g></svg>