<svg class="pan-icon" xmlns="http://www.w3.org/2000/svg" id="line" width="512" height="512" viewBox="0 0 64 64">
  <path d="M61.473,31.924a14.527,14.527,0,0,1-14.981-.016,1,1,0,0,0-1.018.011,14.512,14.512,0,0,1-14.959,0,1.008,1.008,0,0,0-1.037,0,14.51,14.51,0,0,1-14.963,0A1,1,0,0,0,13,32.774V43.163A17,17,0,0,0,28.84,42.9a1,1,0,0,1,.961-.006A17.012,17.012,0,0,0,46.17,42.9a1,1,0,0,1,.961-.009A17.018,17.018,0,0,0,63,43.163V32.774A1.007,1.007,0,0,0,61.473,31.924Z" style="fill:#81514a"/>
  <path d="M46.659,44.908a19.037,19.037,0,0,1-17.332,0A19.017,19.017,0,0,1,13,45.376v9.4a1,1,0,0,0,.485.857,16.508,16.508,0,0,0,16.509.3,16.5,16.5,0,0,0,16,0,16.493,16.493,0,0,0,16.494-.281l.013-.007a1,1,0,0,0,.5-.866v-9.4A19,19,0,0,1,46.659,44.908Z" style="fill:#81514a"/>
  <path d="M50,36H48V18.139a12.4,12.4,0,0,0,2,.174,1,1,0,0,0,0-2,10.234,10.234,0,0,1-7-2.754V10a1,1,0,0,0-1-1H39V7a1,1,0,0,0-2,0V9H34a1,1,0,0,0-1,1v3.558a10.312,10.312,0,0,1-14,0V10a1,1,0,0,0-1-1H15V7a1,1,0,0,0-2,0V9H10a1,1,0,0,0-1,1v3.559a10.234,10.234,0,0,1-7,2.754,1,1,0,0,0,0,2,12.4,12.4,0,0,0,2-.174V36H2a1,1,0,0,0,0,2H9v4a1,1,0,0,0,2,0V11h6V42a1,1,0,0,0,2,0V38H33v4a1,1,0,0,0,2,0V11h6V42a1,1,0,0,0,2,0V38h7a1,1,0,0,0,0-2ZM6,36V17.638a12.153,12.153,0,0,0,3-1.514V36ZM28,18.134V36H24V18.134a11.581,11.581,0,0,0,4,0Zm-9-2.015a12.179,12.179,0,0,0,3,1.511V36H19ZM30,36V17.63a12.232,12.232,0,0,0,3-1.511V36ZM43,16.124a12.153,12.153,0,0,0,3,1.514V36H43Z" style="fill:#ffffff"/>
</svg>
