<svg id="Line" height="512" viewBox="0 0 64 64" width="512" xmlns="http://www.w3.org/2000/svg"><path d="m60 61h-4v-3.07a6.63355 6.63355 0 0 1 -1 .07 8.26583 8.26583 0 0 1 -1-.06v3.06h-10v-7.07a7.17684 7.17684 0 0 1 -2 0v7.07h-10v-3.06a8.26583 8.26583 0 0 1 -1 .06 6.63355 6.63355 0 0 1 -1-.07v3.07h-4a1 1 0 0 0 0 2h34a1 1 0 0 0 0-2z" fill="#c4a2fc"/><path d="m39.29 44.71a1.0041 1.0041 0 0 1 1.42-1.42l2.29 2.3 2.29-2.3a1.0041 1.0041 0 0 1 1.42 1.42l-2.71 2.7v6.52c3.94-.44 7-3.5 7-7.2 0-2.78-2.88-17.73-8-17.73s-8 14.95-8 17.73c0 3.7 3.06 6.76 7 7.2v-6.52z" fill="#c4a2fc"/><path d="m54.29 50.29 3-3a1.0041 1.0041 0 0 1 1.42 1.42l-2.71 2.7v6.52c3.94-.44 7-3.5 7-7.2 0-2.78-2.88-17.73-8-17.73-1.58 0-2.94 1.42-4.08 3.47a47.33383 47.33383 0 0 1 2.08 10.26 9.15456 9.15456 0 0 1 -4.75 7.88 8.09009 8.09009 0 0 0 5.75 3.33v-6.94a1.03276 1.03276 0 0 1 .29-.71z" fill="#c4a2fc"/><path d="m27.29 48.71a1.0041 1.0041 0 0 1 1.42-1.42l3 3a1.03276 1.03276 0 0 1 .29.71v6.94a8.09009 8.09009 0 0 0 5.75-3.33 9.15456 9.15456 0 0 1 -4.75-7.88 47.33383 47.33383 0 0 1 2.08-10.26c-1.14-2.05-2.5-3.47-4.08-3.47-5.12 0-8 14.95-8 17.73 0 3.7 3.06 6.76 7 7.2v-6.52z" fill="#c4a2fc"/><g fill="#151a6a"><path d="m50 47h-2v-23a.99974.99974 0 0 0 -1-1h-7a.99974.99974 0 0 0 -1 1v5h-4v-9a.99974.99974 0 0 0 -1-1h-2v-4a.99949.99949 0 0 0 -.18652-.581l-4.81348-6.73895v-5.68005a1 1 0 0 0 -2 0v5.68l-4.81348 6.739a.99949.99949 0 0 0 -.18652.581v4h-2a.99974.99974 0 0 0 -1 1v4h-11a.99974.99974 0 0 0 -1 1v22h-3a1 1 0 0 0 0 2h48a1 1 0 0 0 0-2zm-24-37.2793 3.05682 4.2793h-6.11364zm-4 6.2793h8v3h-8zm-15 10h10v21h-10zm12-5h14v26h-14zm16 10h4v16h-4zm6 16v-22h5v22z"/><path d="m30 24h-8a.99974.99974 0 0 0 -1 1v5a.99974.99974 0 0 0 1 1h8a.99974.99974 0 0 0 1-1v-5a.99974.99974 0 0 0 -1-1zm-1 5h-6v-3h6z"/><path d="m30 34h-8a.99974.99974 0 0 0 -1 1v5a.99974.99974 0 0 0 1 1h8a.99974.99974 0 0 0 1-1v-5a.99974.99974 0 0 0 -1-1zm-1 5h-6v-3h6z"/><path d="m30 43h-8a1 1 0 0 0 0 2h8a1 1 0 0 0 0-2z"/><path d="m14 28h-4a1 1 0 0 0 0 2h4a1 1 0 0 0 0-2z"/><path d="m14 33h-4a1 1 0 0 0 0 2h4a1 1 0 0 0 0-2z"/><path d="m14 38h-4a1 1 0 0 0 0 2h4a1 1 0 0 0 0-2z"/><path d="m14 43h-4a1 1 0 0 0 0 2h4a1 1 0 0 0 0-2z"/><path d="m38.57227 11.47021a4.21151 4.21151 0 0 1 2.79785 4.35059 1.00088 1.00088 0 0 0 1.84082.61377 4.266 4.266 0 0 1 4.85254-1.80078 1.00019 1.00019 0 0 0 .6289-1.89893 6.38988 6.38988 0 0 0 -5.5664.88526 6.38408 6.38408 0 0 0 -3.9209-4.04737 1.0001 1.0001 0 0 0 -.63281 1.89746z"/><path d="m5.34668 8.90771a4.26429 4.26429 0 0 1 5.15232.50049 1.00133 1.00133 0 0 0 1.62305-1.064 4.26361 4.26361 0 0 1 1.5967-4.9233.99993.99993 0 0 0 -1.09961-1.67041 6.38094 6.38094 0 0 0 -2.75684 4.915 6.38349 6.38349 0 0 0 -5.60742.5664 1 1 0 0 0 1.0918 1.67578z"/></g></svg>