<svg class="pan-icon" xmlns="http://www.w3.org/2000/svg" id="Line" width="512" height="512" viewBox="0 0 64 64">
  <path d="M62.707,44.32227l-5.0293-5.0293a.99927.99927,0,0,0-.707-.293H55.277l-9.76239-5.85742a.99866.99866,0,0,0-1.0293,0L34.723,39H33.0293a.99927.99927,0,0,0-.707.293l-5.0293,5.0293a1.00012,1.00012,0,0,0-.293.707V56.9707a1.00012,1.00012,0,0,0,.293.707l5.0293,5.0293a.99927.99927,0,0,0,.707.293H56.9707a.99927.99927,0,0,0,.707-.293l5.0293-5.0293a1.00012,1.00012,0,0,0,.293-.707V45.0293A1.00012,1.00012,0,0,0,62.707,44.32227ZM45,35.166,51.38977,39H38.61023ZM36,57a1,1,0,0,1-2,0V45a1,1,0,0,1,2,0Zm10,0a1,1,0,0,1-2,0V45a1,1,0,0,1,2,0Zm10,0a1,1,0,0,1-2,0V45a1,1,0,0,1,2,0Z" style="fill:#81514a"/>
  <path d="M50,22.9994a.99974.99974,0,0,0,1-1v-6a.99974.99974,0,0,0-1-1l-4.74872-.00012L19.47363,1.119a1.002,1.002,0,0,0-1.18066.17334L4.53937,15.046a3.979,3.979,0,0,0-.1048,7.89624L15,38.31013V42.9994H14a.99974.99974,0,0,0-1,1v5H11v-10a.99974.99974,0,0,0-1-1H5a.99974.99974,0,0,0-1,1v10H3a1,1,0,0,0,0,2H50a1,1,0,0,0,0-2H44v-7a.99974.99974,0,0,0-1-1H28a.99974.99974,0,0,0-1,1v7H25v-5a.99974.99974,0,0,0-1-1H23v-18h5.38184a1.98318,1.98318,0,0,0,1.99255-2H44v5a.99974.99974,0,0,0,1,1,3,3,0,1,1-3,3,1,1,0,0,0-2,0A5,5,0,1,0,46,27.1V22.9994Zm-41,26H6v-9H9Zm30-6h3v6H39Zm-5,0h3v6H34Zm-5,0h3v6H29ZM20,3.674,41.03375,14.99922l-14.41626-.0003-.44659-.89307a1.98639,1.98639,0,0,0-1.78906-1.10645H20ZM20,14.9994h4.38184l2.00244,4H20ZM18,4.41347V12.9994H13a2.0023,2.0023,0,0,0-2,2v3H8.858a3.99142,3.99142,0,0,0-1.95013-2.49377ZM5,20.9994a2,2,0,1,1,2-2A2.00229,2.00229,0,0,1,5,20.9994Zm1.6496,1.63416A4.00088,4.00088,0,0,0,8.858,19.9994H11v3a2.00229,2.00229,0,0,0,2,2h2v9.78022ZM23,48.9994H15v-4h8Zm-2.80273-17L17,34.13094V29.86787ZM17,27.46425V24.9994h4v5.13154Zm4,6.40362v4.26307L17.80273,35.9994Zm0,6.66669V42.9994H17V37.86787ZM13,22.9994v-8h5v5a.99974.99974,0,0,0,1,1h8.3855l1.00122,2Zm16.6181-2L27.61761,16.999l4.847.00006,2.66693,4.00036Zm5.25019-4.0003,4.26336.00012L37,20.19667Zm4.00018,4.0003L41,17.80214l2.13153,3.19726Zm6.66669,0-2.66675-4.00012,2.12994.00006.00067.00006.00061-.00006L49,16.9994v4Z" style="fill:#ffffff"/>
</svg>
