<svg class="pan-icon" id="Line" height="512" viewBox="0 0 64 64" width="512" xmlns="http://www.w3.org/2000/svg">
  <g fill="#81514a">
    <path d="m31.5 28h4v2h-4z"/>
    <path d="m28 41h11a3.00328 3.00328 0 0 0 3-3v-7a3.00328 3.00328 0 0 0 -3-3h-1.5v3a.99974.99974 0 0 1 -1 1h-6a.99974.99974 0 0 1 -1-1v-3h-1.5a3.00328 3.00328 0 0 0 -3 3v7a3.00328 3.00328 0 0 0 3 3z"/>
    <path d="m50.5 25h6v4h-6z"/>
    <path d="m60 25h-1.5v5a.99974.99974 0 0 1 -1 1h-8a.99974.99974 0 0 1 -1-1v-5h-1.5a3.00328 3.00328 0 0 0 -3 3v10a3.00328 3.00328 0 0 0 3 3h13a3.00328 3.00328 0 0 0 3-3v-10a3.00328 3.00328 0 0 0 -3-3zm-9 13h-3a1 1 0 0 1 0-2h3a1 1 0 0 1 0 2z"/>
    <path d="m40 43h8v4h-8z"/>
    <path d="m60 43h-10v5a.99974.99974 0 0 1 -1 1h-10a.99974.99974 0 0 1 -1-1v-5h-10a3.00328 3.00328 0 0 0 -3 3v14a3.00328 3.00328 0 0 0 3 3h32a3.00328 3.00328 0 0 0 3-3v-14a3.00328 3.00328 0 0 0 -3-3zm-24 16h-6a1 1 0 0 1 0-2h6a1 1 0 0 1 0 2zm0-4h-6a1 1 0 0 1 0-2h6a1 1 0 0 1 0 2z"/>
  </g>
  <path d="m50.73557 20.32346-9-10a1.13258 1.13258 0 0 0 -.67871-.31738c-.34978-.02306-2.92449-.0103-4.03351-.01367a4.95253 4.95253 0 0 1 2.96906-1 1 1 0 0 0 0-2 5.00589 5.00589 0 0 1 -5-5 1 1 0 0 0 -2 0 5.00589 5.00589 0 0 1 -5 5 1 1 0 0 0 0 2 4.95248 4.95248 0 0 1 2.969 1h-19.969a1.33222 1.33222 0 0 0 -.74317.33105l-9 10a1.02567 1.02567 0 0 0 .00876 1.34717l9.7677 10.582a10.99083 10.99083 0 0 1 -9.03332 4.73981 1 1 0 0 0 0 2 11.01245 11.01245 0 0 1 11 11 1 1 0 0 0 2 0 10.97731 10.97731 0 0 1 4.34387-8.73706l5.92175 6.41525a1.0134 1.0134 0 0 0 1.46875 0l11.99417-12.99408a6.49288 6.49288 0 0 1 2.77149 5.31586 1 1 0 0 0 2 0 6.50752 6.50752 0 0 1 6.5-6.5 1 1 0 0 0 0-2 6.49533 6.49533 0 0 1 -5.506-3.06177l6.24035-6.76a1.03074 1.03074 0 0 0 .00881-1.34718zm-26.40582 18.80841a10.98118 10.98118 0 0 1 1.66266-.13946 1 1 0 0 0 0-2 10.96249 10.96249 0 0 1 -2.50684-.29932l-5.0885-14.70068h15.19067l-7.59533 21.94287zm-13.4989-26.46508 4.39532 7.32562h-10.98779zm22.16156 1.32562a1 1 0 0 0 2 0 4.96033 4.96033 0 0 1 .42383-2h3.81l-4.395 7.32568-6.59356-7.32568h4.33087a4.96033 4.96033 0 0 1 .42386 2zm-.24518 6h-13.50964l6.75482-7.50541zm-15.59369-.67432-4.395-7.32568h10.98857zm24.00046-6.6513 6.59283 7.32562h-10.98819zm-7.16159-7.07179a7.05712 7.05712 0 0 0 2.39746 2.39746 7.05712 7.05712 0 0 0 -2.39746 2.39746 7.05712 7.05712 0 0 0 -2.39741-2.39751 7.05712 7.05712 0 0 0 2.39741-2.39741zm-29.71582 16.39741h12.00341l4.78394 13.82019a11.00256 11.00256 0 0 1 -6.07153-9.82019 1 1 0 0 0 -2 0 10.92562 10.92562 0 0 1 -.93787 4.42706zm9.71582 23a13.0796 13.0796 0 0 0 -7-7 13.0721 13.0721 0 0 0 6.201-5.43628l.00128-.0022a12.93832 12.93832 0 0 0 .79773-1.56152 13.07957 13.07957 0 0 0 7 7 13.07957 13.07957 0 0 0 -7.00001 7zm8.38751-5.37811 1.10242 3.18493-2.423-2.62481a10.91845 10.91845 0 0 1 1.32058-.56012zm23.61542-7.12189a8.56275 8.56275 0 0 0 -3.50293 3.50244 8.56275 8.56275 0 0 0 -3.50293-3.50244 8.56275 8.56275 0 0 0 3.50293-3.50241 8.56275 8.56275 0 0 0 3.50293 3.50241zm-2.50293-7.5a1 1 0 0 0 -2 0 6.50753 6.50753 0 0 1 -6.5 6.5 1 1 0 0 0 0 2 6.47194 6.47194 0 0 1 1.84973.27185l-8.3396 9.03467 7.20227-20.80652h12.003l-4.05975 4.39868a6.48617 6.48617 0 0 1 -.15565-1.39868z" fill="#ffffff"/>
</svg>
