<svg class="pan-icon" id="icons" height="512" viewBox="0 0 64 64" width="512" xmlns="http://www.w3.org/2000/svg">
  <path d="m62.38 51.526-6.88-12.778v-10.748a3 3 0 0 0 -3-3h-22a3 3 0 0 0 -3 3v10.748l-6.88 12.778a1.358 1.358 0 0 0 -.12.474v7a1 1 0 0 0 1 1h.936v2a1 1 0 0 0 2 0v-2h34.064v2a1 1 0 0 0 2 0v-2h1a1 1 0 0 0 1-1v-7a1.279 1.279 0 0 0 -.12-.474zm-33.28-11.526h1.4a1 1 0 0 0 1 1h8a1 1 0 0 0 1-1h2a1 1 0 0 0 1 1h8a1 1 0 0 0 1-1h1.4l1.615 3h-28.033zm9.4-1h-6v-3h6zm12 0h-6v-3h6zm10 19h-38v-5h38z" fill="#81514a"/>
  <g fill="#ffffff">
    <path d="m38.5 45h-1v-37a3 3 0 0 0 -3-3h-5v-1a3 3 0 0 0 -3-3h-12a3 3 0 0 0 -3 3v1h-5a3 3 0 0 0 -3 3v37h-1a1 1 0 0 0 -1 1v4a1 1 0 0 0 1 1h36a1 1 0 0 0 1-1v-4a1 1 0 0 0 -1-1zm-25-41a1 1 0 0 1 1-1h12a1 1 0 0 1 1 1v4a1 1 0 0 1 -1 1h-12a1 1 0 0 1 -1-1zm-8 4a1 1 0 0 1 1-1h5v1a3 3 0 0 0 3 3h12a3 3 0 0 0 3-3v-1h5a1 1 0 0 1 1 1v37h-10v-7a5 5 0 0 0 -10 0v7h-10zm12 31h6v6h-6zm.184-2a2.982 2.982 0 0 1 5.632 0zm19.816 12h-34v-2h34z"/>
    <path d="m10.5 12a3 3 0 0 0 -3 3v4a1 1 0 0 0 1 1h4a1 1 0 0 0 1-1v-4a3 3 0 0 0 -3-3zm1 6h-2v-3a1 1 0 0 1 2 0z"/>
    <path d="m18.5 20h4a1 1 0 0 0 1-1v-4a3 3 0 0 0 -6 0v4a1 1 0 0 0 1 1zm1-5a1 1 0 0 1 2 0v3h-2z"/>
    <path d="m28.5 20h4a1 1 0 0 0 1-1v-4a3 3 0 0 0 -6 0v4a1 1 0 0 0 1 1zm1-5a1 1 0 0 1 2 0v3h-2z"/>
    <path d="m10.5 23a3 3 0 0 0 -3 3v4a1 1 0 0 0 1 1h4a1 1 0 0 0 1-1v-4a3 3 0 0 0 -3-3zm1 6h-2v-3a1 1 0 0 1 2 0z"/>
    <path d="m18.5 31h4a1 1 0 0 0 1-1v-4a3 3 0 0 0 -6 0v4a1 1 0 0 0 1 1zm1-5a1 1 0 0 1 2 0v3h-2z"/>
    <path d="m28.5 31h4a1 1 0 0 0 1-1v-4a3 3 0 0 0 -6 0v4a1 1 0 0 0 1 1zm1-5a1 1 0 0 1 2 0v3h-2z"/>
    <path d="m10.5 34a3 3 0 0 0 -3 3v4a1 1 0 0 0 1 1h4a1 1 0 0 0 1-1v-4a3 3 0 0 0 -3-3zm1 6h-2v-3a1 1 0 0 1 2 0z"/>
    <path d="m28.5 42h4a1 1 0 0 0 1-1v-4a3 3 0 0 0 -6 0v4a1 1 0 0 0 1 1zm1-5a1 1 0 0 1 2 0v3h-2z"/>
  </g>
</svg>
