<svg id="Line" height="512" viewBox="0 0 64 64" width="512" xmlns="http://www.w3.org/2000/svg"><path d="m62.58948 36.19-4.59-3.31v-7.88a1.003 1.003 0 0 0 -1-1h-5a1.003 1.003 0 0 0 -1 1v2.82l-6.41-4.63a1.02211 1.02211 0 0 0 -1.18006 0l-18 13a1.00776 1.00776 0 0 0 -.12 1.52l3 3a1.01521 1.01521 0 0 0 1.3.1l.41-.3v21.49a1.003 1.003 0 0 0 1 1h26a1.003 1.003 0 0 0 1-1v-21.49l.41.3a1.01216 1.01216 0 0 0 1.30005-.1l3-3a1.00768 1.00768 0 0 0 -.11999-1.52zm-30.59003 18.81h6v2h-6zm18 0h6v2h-6zm-18 4h6v2h-6zm8 2v-12h8v12zm10 0v-2h6v2zm8.9-22.31-14.31-10.5a1.01 1.01 0 0 0 -1.18006 0l-14.31 10.5-1.56-1.57 16.46-11.89 16.46 11.89z" fill="#c4a2fc"/><g fill="#151a6a"><path d="m54.31722 45.05176-2.56054-.85352-1.82715-4.56933a1.00046 1.00046 0 0 0 -.92871-.62891h-1v-24h2a1.00072 1.00072 0 0 0 .67871-1.73437l-13-12a1.002 1.002 0 0 0 -.67871-.26563h-18a1.00192 1.00192 0 0 0 -.67871.26563l-13 12a1 1 0 1 0 1.35742 1.46875l2.32129-2.14264v26.40826h-1a.99961.99961 0 0 0 -.96973.75781l-.81152 3.24219h-2.21875a.99888.99888 0 0 0 -.94824.68359l-2 6a.9998.9998 0 0 0 .94824 1.31641h52a.99943.99943 0 0 0 1-1v-4a.99889.99889 0 0 0 -.6836-.94824zm-8.3164-6.05176h-17v-26.40826l2.32129 2.14264a1.002 1.002 0 0 0 .67871.26562h14zm-9.39063-36 10.833 10h-15.05175l-10.83301-10zm-25.60937 7.74567 8-7.38434 8 7.38434v28.25433h-3v-11a5 5 0 0 0 -10 0v11h-3zm11 28.25433h-6v-11a3 3 0 0 1 6 0zm31 10h-49.61231l1.333-4h2.2793a.9996.9996 0 0 0 .96972-.75781l.81154-3.24219h39.542l1.748 4.37109a.998.998 0 0 0 .6123.57715l2.31641.77246z"/><path d="m19.00082 17a4 4 0 1 0 -4-4 4.004 4.004 0 0 0 4 4zm0-6a2 2 0 1 1 -2 2 2.0026 2.0026 0 0 1 2-2z"/><path d="m31.00082 18v7a.99942.99942 0 0 0 1 1h11a.99943.99943 0 0 0 1-1v-7a.99943.99943 0 0 0 -1-1h-11a.99942.99942 0 0 0 -1 1zm2 1h9v5h-9z"/><path d="m14.00082 43h-3a1 1 0 1 0 0 2h3a1 1 0 0 0 0-2z"/><path d="m22.00082 45h-3a1 1 0 0 0 0 2h3a1 1 0 1 0 0-2z"/><path d="m30.00082 43h-3a1 1 0 0 0 0 2h3a1 1 0 1 0 0-2z"/><path d="m38.00082 45h-3a1 1 0 0 0 0 2h3a1 1 0 1 0 0-2z"/><path d="m46.00082 43h-3a1 1 0 0 0 0 2h3a1 1 0 1 0 0-2z"/></g></svg>